<?xml version="1.0" encoding="utf-8"?>

<!DOCTYPE svg PUBLIC "-//W3C//DTD SVG 1.1//EN" "http://www.w3.org/Graphics/SVG/1.1/DTD/svg11.dtd">
<!-- Uploaded to: SVG Repo, www.svgrepo.com, Generator: SVG Repo Mixer Tools -->
<svg height="800px" width="800px" version="1.1" id="_x32_" xmlns="http://www.w3.org/2000/svg" xmlns:xlink="http://www.w3.org/1999/xlink" 
	 viewBox="0 0 512 512"  xml:space="preserve">
<style type="text/css">
	.st0{fill:#f4f4f4;}
</style>
<g>
	<path class="st0" d="M274.326,147.552l62.35,6.409c3.662,0.374,6.994-2.15,7.621-5.775l2.62-15.214
		c0.35-2.036-0.214-4.126-1.546-5.701c-1.328-1.582-3.291-2.497-5.354-2.497H275.04c-3.869,0-7.003,3.138-7.003,7.003v8.806
		C268.037,144.181,270.75,147.185,274.326,147.552z"/>
	<path class="st0" d="M411.116,334.266c11.673,0,21.136-9.46,21.136-21.136c0-11.683-9.463-21.13-21.136-21.13
		c-11.67,0-21.133,9.447-21.133,21.13C389.984,324.806,399.447,334.266,411.116,334.266z"/>
	<path class="st0" d="M100.884,334.266c11.67,0,21.133-9.46,21.133-21.136c0-11.683-9.463-21.13-21.133-21.13
		c-11.673,0-21.136,9.447-21.136,21.13C79.748,324.806,89.211,334.266,100.884,334.266z"/>
	<path class="st0" d="M151.822,225.368l-9.857,30.382c2.974,2.163,5.815,4.493,8.418,7.09
		c12.692,12.718,20.492,30.116,20.502,49.496c-0.01,19.38-7.811,36.791-20.502,49.502c-12.717,12.691-30.118,20.495-49.499,20.502
		c-19.38-0.007-36.781-7.811-49.499-20.502c-12.69-12.711-20.495-30.122-20.502-49.502c0.007-19.381,7.811-36.778,20.502-49.496
		c12.711-12.684,30.105-20.488,49.476-20.502l9.861-30.382c-3.238-0.314-6.519-0.501-9.838-0.501
		C45.16,211.468,0.01,256.618,0,312.336c0.01,55.73,45.16,100.873,100.884,100.887c55.725-0.014,100.874-45.156,100.881-100.887
		C201.761,275.223,181.67,242.885,151.822,225.368z"/>
	<path class="st0" d="M344.263,291.513c1.158-3.732,2.684-7.304,4.426-10.742l-22.498-22.738
		c-6.466,10.094-11.235,21.363-13.779,33.48H344.263z"/>
	<path class="st0" d="M411.116,211.454c-20.038,0.007-38.664,5.922-54.36,15.996l22.411,22.651
		c9.574-4.933,20.395-7.764,31.948-7.764c19.38,0.007,36.781,7.811,49.499,20.502c12.691,12.718,20.496,30.116,20.502,49.496
		c-0.006,19.38-7.81,36.791-20.502,49.502c-12.718,12.691-30.119,20.495-49.499,20.502c-19.381-0.007-36.782-7.811-49.499-20.502
		c-7.541-7.55-13.296-16.79-16.777-27.085h-32.018c10.204,44.916,50.286,78.456,98.294,78.47
		C466.841,413.209,511.99,368.066,512,312.336C511.99,256.618,466.841,211.468,411.116,211.454z"/>
	<path class="st0" d="M380.717,313.13c0-3.245,0.647-6.322,1.599-9.26H265.87l31.828-92.196l86.574,87.496
		c2.934-5.608,7.52-10.154,13.172-13.039l-93-93.998l9.694-28.072l-18.934-1.95l-7.153,20.716L162.45,152.572l3.111-9.593
		c1.108-3.412,1.649-6.93,1.649-10.421c0-7.05-2.206-14.026-6.459-19.867c-6.356-8.733-16.506-13.913-27.318-13.913H102.3v18.532
		h31.133c4.876,0,9.466,2.336,12.334,6.276c1.916,2.636,2.914,5.781,2.914,8.972c0,1.576-0.244,3.158-0.744,4.7L100.74,282.754
		c0.051-0.007,0.094-0.02,0.144-0.02c6.533,0,12.555,2.116,17.514,5.641l35.33-108.912l91.124,138.754
		c1.719,2.617,4.616,4.179,7.744,4.179h129.721C381.364,319.458,380.717,316.387,380.717,313.13z M250.172,292.568L172.31,174.002
		l109.67,26.423L250.172,292.568z"/>
</g>
</svg>