<?xml version="1.0" encoding="utf-8"?>

<!-- Uploaded to: SVG Repo, www.svgrepo.com, Generator: SVG Repo Mixer Tools -->
<svg fill="#000000" height="800px" width="800px" version="1.1" id="Icons" xmlns="http://www.w3.org/2000/svg" xmlns:xlink="http://www.w3.org/1999/xlink" 
	 viewBox="0 0 32 32" xml:space="preserve">
<path d="M26,17c-0.5,0-1,0.1-1.5,0.2L22,6.8C21.9,6.3,21.5,6,21,6h-3c-0.6,0-1,0.4-1,1s0.4,1,1,1h2.2l1.2,5H10.9
	c-0.1-0.8,0.2-1.7,0.8-2.3c0.3-0.3,0.4-0.7,0.2-1.1C11.8,9.2,11.4,9,11,9H7c-0.6,0-1,0.4-1,1s0.4,1,1,1h2.2
	c-0.3,0.9-0.4,1.8-0.2,2.7l-1.5,3.5C7,17.1,6.5,17,6,17c-3.3,0-6,2.7-6,6s2.7,6,6,6c3,0,5.4-2.2,5.9-5H15c0,0,0,0,0,0c0,0,0,0,0,0
	c0.1,0,0.3,0,0.4-0.1c0,0,0,0,0,0c0,0,0,0,0,0c0.1-0.1,0.2-0.2,0.3-0.3c0,0,0,0,0,0l6.3-8.1l0.6,2.5c-1.6,1.1-2.7,2.9-2.7,5
	c0,3.3,2.7,6,6,6s6-2.7,6-6S29.3,17,26,17z M10.1,16.2l3.2,5.8h-1.4c-0.3-1.7-1.2-3.1-2.6-4L10.1,16.2z M8.5,19.9
	c0.7,0.5,1.2,1.3,1.4,2.1H7.5L8.5,19.9z M6,27c-2.2,0-4-1.8-4-4s1.8-4,4-4c0.2,0,0.4,0,0.7,0.1l-1.6,3.5c-0.1,0.3-0.1,0.7,0.1,1
	S5.7,24,6,24h3.9C9.4,25.7,7.9,27,6,27z M15.1,21.2L11.8,15H20L15.1,21.2z M26,27c-2.2,0-4-1.8-4-4c0-1.1,0.5-2.1,1.2-2.8l0.4,1.7
	c0,0.2,0.1,0.4,0.3,0.5l1.4,1.3c0.2,0.2,0.4,0.3,0.7,0.3c0.3,0,0.5-0.1,0.7-0.3c0.4-0.4,0.4-1,0-1.4l-1.2-1.1l-0.5-2
	c0.3-0.1,0.7-0.1,1-0.1c2.2,0,4,1.8,4,4S28.2,27,26,27z"/>
</svg>