<?xml version="1.0" encoding="utf-8"?>

<!DOCTYPE svg PUBLIC "-//W3C//DTD SVG 1.1//EN" "http://www.w3.org/Graphics/SVG/1.1/DTD/svg11.dtd">
<!-- Uploaded to: SVG Repo, www.svgrepo.com, Generator: SVG Repo Mixer Tools -->
<svg height="800px" width="800px" version="1.1" id="_x32_" xmlns="http://www.w3.org/2000/svg" xmlns:xlink="http://www.w3.org/1999/xlink" 
	 viewBox="0 0 512 512"  xml:space="preserve">
<style type="text/css">
	.st0{fill:#f4f4f4;}
</style>
<g>
	<path class="st0" d="M94.354,357.894c-16.833-1.74-31.852-9.288-43.174-20.61c-12.984-13.055-20.986-30.871-20.986-50.722
		c0-19.851,8.002-37.668,20.986-50.722c12.981-12.988,30.871-20.986,50.722-20.986c5.739,0,11.322,0.752,16.759,2.034L87.635,293.66
		l20.986,8.448l30.949-76.463c4.678,2.868,9.133,6.266,12.982,10.194c11.399,11.396,18.948,26.338,20.684,43.174l25.136-25.136
		c-8.153-24.229-25.287-44.383-47.405-56.612l13.287-32.758h116.544l-3.852,10.792l33.44-33.436h-137l33.363-82.353H119.49v22.645
		h53.667l-43.1,106.582c-8.982-2.639-18.418-4.076-28.155-4.076C45.592,184.66,0,230.252,0,286.562
		c0,44.914,28.985,82.957,69.217,96.542L94.354,357.894z"/>
	<path class="st0" d="M410.098,184.66c-10.191,0-20.08,1.511-29.364,4.304l-68.236,68.237c-1.736,5.808-2.941,11.846-3.623,18.038
		H294.46l-22.645,22.645h37.059c5.661,50.951,48.762,90.579,101.224,90.579c56.309,0,101.902-45.592,101.902-101.902
		C512,230.252,466.408,184.66,410.098,184.66z M460.824,337.284c-13.059,12.988-30.875,20.986-50.726,20.986
		s-37.668-7.998-50.726-20.986c-10.416-10.489-17.584-24.156-20.002-39.4h70.728V275.24H339.37
		c2.418-15.244,9.586-28.911,20.002-39.4c13.058-12.988,30.875-20.986,50.726-20.986s37.667,7.998,50.726,20.986
		c12.981,13.055,20.982,30.871,20.982,50.722C481.807,306.413,473.805,324.229,460.824,337.284z"/>
	<polygon class="st0" points="323.595,128.653 346.465,105.779 347.825,101.629 266.681,101.629 276.116,128.653 	"/>
	<polygon class="st0" points="452.082,42.872 41.84,453.118 57.854,469.128 468.096,58.883 	"/>
</g>
</svg>