<?xml version="1.0" encoding="UTF-8" standalone="no"?><!DOCTYPE svg PUBLIC "-//W3C//DTD SVG 1.1//EN" "http://www.w3.org/Graphics/SVG/1.1/DTD/svg11.dtd"><svg width="100%" height="100%" viewBox="0 0 64 64" version="1.1" xmlns="http://www.w3.org/2000/svg" xmlns:xlink="http://www.w3.org/1999/xlink" xml:space="preserve" xmlns:serif="http://www.serif.com/" style="fill-rule:evenodd;clip-rule:evenodd;stroke-linejoin:round;stroke-miterlimit:2;"><g id="white"><path d="M45.129,15.688L38.508,15.688L38.508,20.5L24.82,20.5L24.82,15.688L18.871,15.688L31.742,2.45L45.129,15.688ZM38.508,43.621L38.508,48.312L45.129,48.312L31.742,61.55L18.871,48.312L24.82,48.312L24.82,43.5L38.508,43.621Z" style="fill:#f4f4f4;"/><path d="M40.868,30.766L38.526,30.766L38.526,27.988C38.526,24.756 35.583,22.125 31.968,22.125C28.352,22.125 25.412,24.756 25.412,27.988L25.412,30.766L23.489,30.766C22.346,30.766 22.307,31.596 22.307,32.617L22.307,40.024C22.307,41.045 22.346,41.875 23.489,41.875L40.868,41.875C42.013,41.875 41.632,41.045 41.632,40.024L41.632,32.617C41.629,31.596 42.013,30.766 40.868,30.766ZM35.076,30.766L28.864,30.766L28.864,27.988C28.961,26.378 30.357,25.129 31.968,25.212C33.58,25.128 34.977,26.378 35.073,27.988L35.076,30.766Z" style="fill:#f3f4f4;fill-rule:nonzero;"/></g></svg>